<?xml version="1.0" encoding="UTF-8" standalone="no"?>
<svg width="100px" height="100px" viewBox="0 0 200 200" version="1.1" xmlns="http://www.w3.org/2000/svg" xmlns:xlink="http://www.w3.org/1999/xlink" xmlns:sketch="http://www.bohemiancoding.com/sketch/ns">
    <title>Untitled 2</title>
    <description>Created with Sketch (http://www.bohemiancoding.com/sketch)</description>
    <defs></defs>
    <g id="Page-1" stroke="none" stroke-width="1" fill="none" fill-rule="evenodd" sketch:type="MSPage">
        <g id="Stroke-1544-+-Stroke-1545-+-Stroke-1546" sketch:type="MSLayerGroup" transform="translate(50.000000, 50.000000)" stroke-width="2" stroke-linejoin="round">
            <path d="M75.1874138,33.5388655 C81.5184483,36.2432276 89.1046552,35.0068483 94.2684483,29.7914172 C99.427069,24.579469 100.654655,17.2378138 97.9753448,10.8452103 L89.6563793,20.7118655 L79.3098276,20.7118655 L79.3098276,9.61057241 L88.7615517,1.20493448 C82.4236207,-1.50116897 74.8322414,-0.256082759 69.6718966,4.95238276 C64.5132759,10.1625897 63.2822414,17.8298828 65.9598276,24.2242276 L24.1684483,66.4387448 C17.8391379,63.7326414 10.2460345,64.9742448 5.08741379,70.1879345 C-0.0712068966,75.3981414 -1.30396552,83.0636931 1.37706897,89.4597793 L9.69603448,79.9187621 L20.6891379,79.9187621 L20.6891379,90.3705207 L10.9218966,98.7744172 C17.2563793,101.478779 24.6822414,100.237176 29.8408621,95.0252276 C35.002931,89.8150207 36.0701724,82.1477276 33.3891379,75.7533828 L75.1874138,33.5388655 Z" id="Stroke-1544" stroke="#3FB5A4" sketch:type="MSShapeGroup"></path>
            <path d="M49.6732759,40.6705103 L33.3887931,24.2249241 C36.0698276,17.8305793 34.8405172,10.1632862 29.6784483,4.95133793 C24.5198276,-0.257127586 17.2560345,-1.50221379 10.9232759,1.20563103 L20.6887931,9.60952759 L20.6887931,20.7108207 L9.69741379,20.7108207 L1.375,10.8441655 C-1.30258621,17.2385103 -0.0715517241,24.7438552 5.08706897,29.9540621 C10.2456897,35.1694931 17.8405172,36.325769 24.1681034,33.6196655 L40.4543103,50.0286828" id="Stroke-1545" stroke="#2E4599" sketch:type="MSShapeGroup"></path>
            <path d="M49.6732759,59.2987414 L65.9646552,75.7582586 C63.2853448,82.1526034 64.512931,89.8146724 69.6767241,95.0283621 C74.8336207,100.24031 82.4267241,101.480172 88.762931,98.774069 L79.3094828,90.3736552 L79.3094828,79.9184138 L89.6577586,79.9184138 L97.9801724,89.459431 C100.657759,83.0633448 99.4267241,75.3977931 94.2681034,70.1875862 C89.1094828,64.9773793 81.5181034,63.7322931 75.187069,66.4401379 L58.9025862,49.9875862" id="Stroke-1546" stroke="#2E4599" sketch:type="MSShapeGroup"></path>
        </g>
    </g>
</svg>