<?xml version="1.0" encoding="utf-8"?>
<!-- Generator: Adobe Illustrator 16.2.1, SVG Export Plug-In . SVG Version: 6.00 Build 0)  -->
<!DOCTYPE svg PUBLIC "-//W3C//DTD SVG 1.1//EN" "http://www.w3.org/Graphics/SVG/1.1/DTD/svg11.dtd">
<svg version="1.1" id="Layer_1" xmlns="http://www.w3.org/2000/svg" xmlns:xlink="http://www.w3.org/1999/xlink" x="0px" y="0px"
	 width="100px" height="100px" viewBox="-12.638 -10.68 100 100" enable-background="new -12.638 -10.68 100 100"
	 xml:space="preserve">
<g>
	<path fill="none" stroke="#2D4698" stroke-width="2" stroke-linejoin="round" stroke-miterlimit="10" d="M31.279,49.664v-2.759
		h1.392v-2.759h-8.35v2.759h1.392v2.759c-5.567,0-8.351,4.138-8.351,9.655h22.268C39.629,53.802,36.846,49.664,31.279,49.664z"/>
	
		<line fill="none" stroke="#2D4698" stroke-width="2" stroke-linecap="round" stroke-linejoin="round" stroke-miterlimit="10" x1="56.33" y1="20.009" x2="35.454" y2="40.698"/>
	<path fill="none" stroke="#2D4698" stroke-width="2" stroke-linecap="round" stroke-linejoin="round" stroke-miterlimit="10" d="
		M38.238,37.94c-2.398-2.376,0.132-8.15,5.271-13.244c2.644-2.621,5.499-4.516,7.254-5.377v6.207"/>
	
		<line fill="none" stroke="#2D4698" stroke-width="2" stroke-linecap="round" stroke-linejoin="round" stroke-miterlimit="10" x1="44.5" y1="31.733" x2="53.546" y2="31.733"/>
	<path fill="none" stroke="#2D4698" stroke-width="2" stroke-linecap="round" stroke-linejoin="round" stroke-miterlimit="10" d="
		M41.717,34.492h9.742c-4.915,5.119-10.973,5.675-13.222,3.448"/>
	<path fill="none" stroke="#2D4698" stroke-width="2" stroke-linecap="round" stroke-linejoin="round" stroke-miterlimit="10" d="
		M56.33,20.009c1.601,1.587,1.315,4.527-0.696,8.966h-8.351"/>
</g>
</svg>
