<?xml version="1.0" encoding="utf-8"?>
<!-- Generator: Adobe Illustrator 16.2.1, SVG Export Plug-In . SVG Version: 6.00 Build 0)  -->
<!DOCTYPE svg PUBLIC "-//W3C//DTD SVG 1.1//EN" "http://www.w3.org/Graphics/SVG/1.1/DTD/svg11.dtd">
<svg version="1.1" id="Layer_1" xmlns="http://www.w3.org/2000/svg" xmlns:xlink="http://www.w3.org/1999/xlink" x="0px" y="0px"
	 width="232.23px" height="41.916px" viewBox="8.373 17.05 232.23 41.916" enable-background="new 8.373 17.05 232.23 41.916"
	 xml:space="preserve">
<g>
	<path fill="#414141" d="M107.908,29.417l4.367-12.367H16.984L8.373,46.599h83.594l-4.918,12.367h147.223l6.331-29.548
		L107.908,29.417L107.908,29.417z M30.754,36.161c-0.594,3.327-1.878,4.872-5.942,4.872c-2.186,0-5.228-0.404-5.228-3.28
		c0-0.856,0.261-1.83,0.499-2.781h4.04c-0.19,0.713-0.451,1.759-0.451,2.163c0,1.093,0.998,1.093,1.212,1.093
		c0.499,0,0.927-0.143,1.212-0.523c0.333-0.428,0.571-1.545,0.571-2.02c0-0.57-0.238-0.879-0.879-1.402
		c-0.333-0.261-0.499-0.38-1.592-1.212c-1.854-1.378-2.448-1.83-2.448-3.399c0-1.283,0.784-3.612,1.497-4.563
		c0.428-0.546,1.117-1.426,4.088-1.426c3.018,0,5.038,0.737,5.038,3.137c0,0.666-0.166,1.378-0.428,2.472h-3.85
		c0.118-0.499,0.356-1.426,0.356-1.806c0-0.784-0.666-0.951-1.07-0.951c-0.76,0-1.046,0.428-1.117,0.57
		c-0.333,0.475-0.499,1.521-0.499,1.854c0,0.76,0.261,0.951,1.663,1.996c3.066,2.305,3.446,2.804,3.446,4.206
		C30.873,35.496,30.825,35.829,30.754,36.161z M40.331,34.046h-3.09l-1.545,6.702h-4.064l3.874-16.778h6.298
		c0.998,0,3.565,0.023,3.565,2.661c0,0.357-0.047,0.879-0.166,1.355l-0.546,2.448C44.039,33.167,43.183,34.046,40.331,34.046z
		 M56.895,30.196c-0.642,1.378-1.735,1.759-2.994,1.949c0.641,0.119,2.234,0.428,2.234,1.949c0,0.333-0.071,0.665-0.166,1.212
		l-0.523,2.543c-0.072,0.357-0.309,1.545-0.309,1.83c0,0.737,0.499,0.903,0.737,0.998v0.143l-3.518-0.119
		c-0.713-0.024-1.212-0.286-1.212-1.046c0-0.119,0-0.285,0.166-1.046l0.618-2.994c0.118-0.595,0.166-0.808,0.166-1.022
		c0-0.832-0.665-0.903-1.188-0.903h-1.165l-1.64,7.058h-4.088l3.874-16.778h4.896c2.377,0,4.896,0,4.896,2.733
		C57.679,27.558,57.323,29.317,56.895,30.196z M57.893,40.748l3.874-16.778h4.064l-3.874,16.778H57.893z M75.788,40.748H71.89
		l-0.594-4.824c-0.333-2.71-0.38-3.019-0.594-5.514l-2.044,10.338h-3.779l3.874-16.778h3.945c0.713,5.466,0.856,6.678,1.212,10.409
		c0.451-2.828,0.57-3.422,1.022-5.561c0.523-2.424,0.57-2.662,1.022-4.848h3.731L75.788,40.748z M90.569,26.869h-2.804
		l-3.209,13.879h-4.087l3.208-13.879h-3.066L81.3,23.97h9.934L90.569,26.869z M113.711,52.42h-3.786l0.338-3.538h-2.952
		l-1.352,3.538h-4.124l6.828-15.91h6.197L113.711,52.42z M122.657,39.147c-0.924,0-1.104,0.451-1.285,0.946l-1.893,8.158
		c-0.067,0.27-0.135,0.564-0.135,0.834c0,0.788,0.767,0.879,1.104,0.879c0.992,0,1.239-0.676,1.352-0.991
		c0.271-0.767,0.473-1.69,0.654-2.547h3.944l-0.564,2.299c-0.699,2.862-1.69,4.011-5.588,4.011c-1.014,0-1.938-0.09-2.727-0.405
		c-0.789-0.316-2.051-1.105-2.051-2.75c0-0.248,0-0.744,0.361-2.231l1.533-6.694c0.496-2.187,1.104-2.997,1.78-3.493
		c1.059-0.788,2.839-0.924,3.831-0.924c0.969,0,2.186,0.135,2.975,0.473c0.766,0.338,1.713,1.036,1.713,2.749
		c0,0.338-0.045,0.721-0.135,1.127l-0.473,1.961h-3.696l0.428-1.871c0.045-0.158,0.068-0.338,0.068-0.518
		C123.852,39.26,123.175,39.147,122.657,39.147z M137.621,48.724c-0.699,2.862-1.69,4.011-5.589,4.011
		c-1.014,0-1.937-0.09-2.726-0.405c-0.789-0.316-2.051-1.105-2.051-2.75c0-0.248,0-0.744,0.361-2.231l1.533-6.694
		c0.496-2.187,1.104-2.997,1.78-3.493c1.059-0.788,2.839-0.924,3.831-0.924c0.969,0,2.186,0.135,2.975,0.473
		c0.766,0.338,1.713,1.036,1.713,2.749c0,0.338-0.045,0.721-0.135,1.127l-0.473,1.961h-3.696l0.429-1.871
		c0.045-0.158,0.067-0.338,0.067-0.518c0-0.902-0.676-1.014-1.194-1.014c-0.924,0-1.104,0.451-1.285,0.946l-1.893,8.158
		c-0.068,0.27-0.135,0.564-0.135,0.834c0,0.788,0.767,0.879,1.104,0.879c0.992,0,1.24-0.676,1.352-0.991
		c0.271-0.767,0.473-1.69,0.654-2.547h3.943L137.621,48.724z M147.874,49.626l-0.631,2.794h-8.406l3.674-15.91h8l-0.631,2.75h-4.124
		l-0.834,3.606h3.921l-0.608,2.704h-3.944l-0.924,4.057L147.874,49.626L147.874,49.626z M156.707,52.42h-7.932l3.673-15.91h3.854
		l-3.042,13.206h4.079L156.707,52.42z M167.073,45.569h-3.944l-0.924,4.057h4.507l-0.631,2.794h-8.405l3.673-15.91h8l-0.631,2.75
		h-4.124l-0.834,3.606h3.921L167.073,45.569z M179.287,52.353v0.135l-3.336-0.113c-0.676-0.022-1.149-0.27-1.149-0.991
		c0-0.113,0-0.27,0.158-0.992l0.586-2.839c0.113-0.562,0.158-0.766,0.158-0.969c0-0.789-0.631-0.856-1.127-0.856h-1.104
		l-1.555,6.693h-3.876l3.674-15.91h4.642c2.254,0,4.643,0,4.643,2.591c0,0.812-0.338,2.479-0.744,3.313
		c-0.609,1.307-1.645,1.668-2.84,1.848c0.608,0.113,2.118,0.405,2.118,1.848c0,0.316-0.067,0.631-0.158,1.15l-0.495,2.411
		c-0.068,0.338-0.294,1.465-0.294,1.735C178.588,52.104,179.061,52.262,179.287,52.353z M191.388,52.42h-3.786l0.338-3.538h-2.953
		l-1.352,3.538h-4.124l6.828-15.91h6.197L191.388,52.42z M197.585,52.42h-3.876l3.042-13.16h-2.907l0.654-2.75h9.419l-0.631,2.75
		h-2.659L197.585,52.42z M207.026,52.758c-2.096,0-4.777-0.586-4.777-3.583c0-0.608,0.158-1.487,0.27-1.983l1.465-6.152
		c0.609-2.592,1.24-4.8,5.634-4.8c0.834,0,2.546,0.113,3.583,0.834c1.082,0.767,1.239,1.826,1.239,2.614
		c0,1.037-0.338,2.456-0.585,3.493l-1.262,5.364C211.849,51.654,210.542,52.758,207.026,52.758z M225.482,42.414
		c-0.608,1.307-1.645,1.668-2.839,1.848c0.608,0.113,2.118,0.405,2.118,1.848c0,0.316-0.067,0.631-0.158,1.15l-0.496,2.411
		c-0.067,0.338-0.293,1.465-0.293,1.735c0,0.699,0.473,0.856,0.699,0.947v0.135l-3.336-0.113c-0.676-0.022-1.149-0.27-1.149-0.991
		c0-0.113,0-0.27,0.158-0.992l0.586-2.839c0.113-0.562,0.157-0.766,0.157-0.969c0-0.789-0.631-0.856-1.126-0.856h-1.104
		l-1.555,6.693h-3.876l3.673-15.91h4.642c2.254,0,4.643,0,4.643,2.591C226.226,39.913,225.888,41.581,225.482,42.414z"/>
	<polygon fill="#414141" points="110.511,46.155 111.232,37.975 108.348,46.155 	"/>
	<path fill="#414141" d="M209.595,39.101c-0.992,0-1.194,0.541-1.33,0.969c-0.293,0.991-2.208,8.293-2.208,8.879
		c0,0.608,0.428,0.924,1.172,0.924c1.059,0,1.33-0.766,1.69-2.186c0.225-0.856,1.217-5.026,1.442-5.972
		c0.315-1.239,0.338-1.375,0.338-1.6C210.7,39.507,210.339,39.101,209.595,39.101z"/>
	<polygon fill="#414141" points="188.188,46.155 188.909,37.975 186.024,46.155 	"/>
	<path fill="#414141" d="M176.537,39.282c-0.225-0.022-0.36-0.022-1.577-0.022l-0.856,3.65h1.059
		c0.811-0.022,1.284-0.022,1.645-0.834c0.225-0.473,0.473-1.893,0.473-2.119C177.281,39.349,176.785,39.304,176.537,39.282z"/>
	<path fill="#414141" d="M40.355,26.869h-1.45l-0.974,4.135h1.592c0.499,0,1.022-0.048,1.355-0.927
		c0.119-0.309,0.523-1.878,0.523-2.401C41.401,26.869,40.616,26.869,40.355,26.869z"/>
	<path fill="#414141" d="M221.764,39.282c-0.226-0.022-0.361-0.022-1.578-0.022l-0.856,3.65h1.059
		c0.811-0.022,1.284-0.022,1.645-0.834c0.225-0.473,0.473-1.893,0.473-2.119C222.508,39.349,222.012,39.304,221.764,39.282z"/>
	<path fill="#414141" d="M52.974,26.893c-0.238-0.023-0.38-0.023-1.664-0.023l-0.903,3.85h1.117
		c0.856-0.022,1.355-0.022,1.735-0.879c0.238-0.499,0.499-1.996,0.499-2.234C53.758,26.964,53.236,26.917,52.974,26.893z"/>
</g>
</svg>
