<?xml version="1.0" encoding="utf-8"?>
<!-- Generator: Adobe Illustrator 17.1.0, SVG Export Plug-In . SVG Version: 6.00 Build 0)  -->
<!DOCTYPE svg PUBLIC "-//W3C//DTD SVG 1.1//EN" "http://www.w3.org/Graphics/SVG/1.1/DTD/svg11.dtd">
<svg version="1.1" id="Layer_1" xmlns="http://www.w3.org/2000/svg" xmlns:xlink="http://www.w3.org/1999/xlink" x="0px" y="0px"
	 viewBox="0 0 189 81" enable-background="new 0 0 189 81" xml:space="preserve">
<g>
	<path fill="#414141" d="M26.7,55.1c-0.8,0.5-1.9,0.7-3.2,0.7c-3.8,0-5.7-2.1-5.7-6.3V36.6H14v-3h3.7v-5.3l3.5-1.1v6.4h5.5v3h-5.5
		v12.2c0,1.5,0.2,2.5,0.7,3.1c0.5,0.6,1.3,0.9,2.5,0.9c0.9,0,1.6-0.2,2.3-0.7V55.1z"/>
	<path fill="#414141" d="M48.4,55.3H45V42.9c0-4.5-1.7-6.8-5-6.8c-1.7,0-3.1,0.7-4.3,2c-1.2,1.3-1.7,3-1.7,5v12.3h-3.5V23.3h3.5v14
		H34c1.7-2.7,4-4.1,7.1-4.1c4.9,0,7.3,2.9,7.3,8.8V55.3z"/>
	<path fill="#414141" d="M54.2,28.2c-0.6,0-1.1-0.2-1.6-0.6c-0.4-0.4-0.7-1-0.7-1.6c0-0.6,0.2-1.2,0.7-1.6c0.4-0.4,1-0.6,1.6-0.6
		c0.6,0,1.2,0.2,1.6,0.6c0.4,0.4,0.7,1,0.7,1.6c0,0.6-0.2,1.1-0.7,1.6C55.3,28,54.8,28.2,54.2,28.2z M55.8,55.3h-3.5V33.7h3.5V55.3z
		"/>
	<path fill="#414141" d="M78.2,55.3h-3.5V43c0-4.6-1.7-6.9-5-6.9c-1.7,0-3.2,0.7-4.3,2c-1.1,1.3-1.7,3-1.7,4.9v12.4h-3.5V33.7h3.5
		v3.6h0.1c1.6-2.7,4-4.1,7.1-4.1c2.4,0,4.2,0.8,5.4,2.3c1.3,1.5,1.9,3.7,1.9,6.6V55.3z"/>
	<path fill="#414141" d="M100.2,55.3h-4.9l-9.6-10.4h-0.1v10.4h-3.5V23.3h3.5v20.3h0.1l9.1-9.9h4.5l-10,10.4L100.2,55.3z"/>
	<path fill="#414141" d="M105.5,55.3V25h11c3.4,0,6,0.6,7.8,1.9c1.8,1.2,2.7,3,2.7,5.2c0,1.6-0.6,3.1-1.7,4.3
		c-1.1,1.2-2.5,2.1-4.2,2.6v0.1c2.2,0.3,3.9,1.1,5.2,2.4c1.3,1.3,1.9,2.9,1.9,4.8c0,2.8-1,5-3,6.6c-2,1.6-4.7,2.4-8.1,2.4H105.5z
		 M112.3,30v7.2h3c1.4,0,2.5-0.3,3.3-1c0.8-0.7,1.2-1.6,1.2-2.8c0-2.2-1.7-3.3-5-3.3H112.3z M112.3,42.3v8h3.7
		c1.6,0,2.8-0.4,3.7-1.1c0.9-0.7,1.3-1.7,1.3-3c0-1.2-0.4-2.2-1.3-2.9c-0.9-0.7-2.1-1-3.7-1H112.3z"/>
	<path fill="#414141" d="M138.7,25v30.3h-7.1V25H138.7z"/>
	<path fill="#414141" d="M169.2,53.3c-3,1.7-6.6,2.6-11,2.6c-4.9,0-8.7-1.3-11.5-4.1c-2.8-2.7-4.2-6.4-4.2-11.2
		c0-4.8,1.5-8.7,4.6-11.7c3.1-3,7.2-4.5,12.3-4.5c3.2,0,6,0.4,8.5,1.3v6.4c-2.3-1.4-5.2-2-8.6-2c-2.8,0-5.1,0.9-6.9,2.8
		c-1.8,1.8-2.7,4.3-2.7,7.4c0,3.1,0.8,5.5,2.4,7.2c1.6,1.7,3.8,2.6,6.5,2.6c1.6,0,2.9-0.2,3.9-0.7v-5.9h-6.1v-5.5h12.9V53.3z"/>
</g>
<path fill-rule="evenodd" clip-rule="evenodd" fill="#414141" d="M176.7,29.3c0,0,0.4-33.8-115.3-6C51.5,25.7,185.4-12.1,176.7,29.3
	z"/>
<g>
	<path fill="#414141" d="M53.6,66.7v2.1h-1.3v-6h2.1c1.5,0,2.3,0.6,2.3,1.9c0,0.6-0.2,1.1-0.6,1.5c-0.4,0.4-1,0.6-1.7,0.6H53.6z
		 M53.6,63.8v1.9h0.5c0.7,0,1.1-0.3,1.1-0.9c0-0.6-0.4-0.9-1.1-0.9H53.6z"/>
	<path fill="#414141" d="M68.2,68.8h-1.5l-0.4-1.3h-2.1l-0.4,1.3h-1.5l2.2-6h1.6L68.2,68.8z M66,66.4l-0.6-2c0-0.1-0.1-0.3-0.1-0.5
		h0c0,0.2,0,0.3-0.1,0.5l-0.6,2H66z"/>
	<path fill="#414141" d="M79.5,68.8h-1.5L77,67.2c-0.1-0.1-0.1-0.2-0.2-0.3c-0.1-0.1-0.1-0.2-0.2-0.2c-0.1-0.1-0.1-0.1-0.2-0.1
		c-0.1,0-0.1-0.1-0.2-0.1h-0.4v2.3h-1.3v-6h2.1c1.4,0,2.2,0.5,2.2,1.6c0,0.2,0,0.4-0.1,0.6c-0.1,0.2-0.2,0.3-0.3,0.5
		c-0.1,0.1-0.3,0.3-0.4,0.4c-0.2,0.1-0.3,0.2-0.6,0.2v0c0.1,0,0.2,0.1,0.3,0.1c0.1,0.1,0.2,0.1,0.2,0.2c0.1,0.1,0.2,0.2,0.2,0.3
		c0.1,0.1,0.1,0.2,0.2,0.3L79.5,68.8z M75.8,63.8v1.7h0.6c0.3,0,0.5-0.1,0.7-0.2c0.2-0.2,0.3-0.4,0.3-0.6c0-0.5-0.3-0.8-0.9-0.8
		H75.8z"/>
	<path fill="#414141" d="M89.7,63.9H88v4.9h-1.3v-4.9H85v-1.1h4.7V63.9z"/>
	<path fill="#414141" d="M101.4,68.8h-1.4L97.6,65c-0.1-0.2-0.2-0.4-0.3-0.5h0c0,0.2,0,0.5,0,1v3.3h-1.3v-6h1.4l2.4,3.6
		c0.1,0.2,0.2,0.3,0.3,0.5h0c0-0.1,0-0.4,0-0.8v-3.3h1.3V68.8z"/>
	<path fill="#414141" d="M111.9,68.8h-3.6v-6h3.4v1.1h-2.1v1.3h2v1.1h-2v1.4h2.2V68.8z"/>
	<path fill="#414141" d="M123.4,68.8h-1.5l-0.9-1.5c-0.1-0.1-0.1-0.2-0.2-0.3c-0.1-0.1-0.1-0.2-0.2-0.2c-0.1-0.1-0.1-0.1-0.2-0.1
		c-0.1,0-0.1-0.1-0.2-0.1h-0.4v2.3h-1.3v-6h2.1c1.4,0,2.2,0.5,2.2,1.6c0,0.2,0,0.4-0.1,0.6c-0.1,0.2-0.2,0.3-0.3,0.5
		c-0.1,0.1-0.3,0.3-0.4,0.4c-0.2,0.1-0.3,0.2-0.6,0.2v0c0.1,0,0.2,0.1,0.3,0.1c0.1,0.1,0.2,0.1,0.2,0.2c0.1,0.1,0.2,0.2,0.2,0.3
		c0.1,0.1,0.1,0.2,0.2,0.3L123.4,68.8z M119.7,63.8v1.7h0.6c0.3,0,0.5-0.1,0.7-0.2c0.2-0.2,0.3-0.4,0.3-0.6c0-0.5-0.3-0.8-0.9-0.8
		H119.7z"/>
	<path fill="#414141" d="M129.2,68.5v-1.3c0.2,0.2,0.5,0.4,0.8,0.5c0.3,0.1,0.6,0.2,0.9,0.2c0.2,0,0.3,0,0.4,0
		c0.1,0,0.2-0.1,0.3-0.1c0.1-0.1,0.1-0.1,0.2-0.2c0-0.1,0.1-0.2,0.1-0.2c0-0.1,0-0.2-0.1-0.3c-0.1-0.1-0.2-0.2-0.3-0.3
		c-0.1-0.1-0.3-0.2-0.4-0.2c-0.2-0.1-0.3-0.1-0.5-0.2c-0.5-0.2-0.8-0.4-1-0.7c-0.2-0.3-0.3-0.6-0.3-1c0-0.3,0.1-0.6,0.2-0.8
		c0.1-0.2,0.3-0.4,0.5-0.6c0.2-0.1,0.5-0.3,0.7-0.3c0.3-0.1,0.6-0.1,0.9-0.1c0.3,0,0.6,0,0.8,0.1c0.2,0,0.5,0.1,0.7,0.2v1.2
		c-0.1-0.1-0.2-0.1-0.3-0.2c-0.1-0.1-0.2-0.1-0.4-0.1c-0.1,0-0.2-0.1-0.4-0.1c-0.1,0-0.2,0-0.4,0c-0.2,0-0.3,0-0.4,0
		c-0.1,0-0.2,0.1-0.3,0.1c-0.1,0.1-0.2,0.1-0.2,0.2c0,0.1-0.1,0.2-0.1,0.2c0,0.1,0,0.2,0.1,0.3c0.1,0.1,0.1,0.2,0.2,0.2
		c0.1,0.1,0.2,0.1,0.4,0.2c0.1,0.1,0.3,0.1,0.5,0.2c0.2,0.1,0.5,0.2,0.6,0.3c0.2,0.1,0.4,0.2,0.5,0.4c0.1,0.1,0.2,0.3,0.3,0.5
		c0.1,0.2,0.1,0.4,0.1,0.6c0,0.3-0.1,0.6-0.2,0.8c-0.1,0.2-0.3,0.4-0.5,0.5s-0.5,0.2-0.8,0.3c-0.3,0.1-0.6,0.1-0.9,0.1
		c-0.3,0-0.6,0-0.9-0.1C129.6,68.7,129.4,68.6,129.2,68.5z"/>
</g>
</svg>
