<?xml version="1.0" encoding="UTF-8" standalone="no"?>
<svg width="207px" height="31px" viewBox="0 0 207 31" version="1.1" xmlns="http://www.w3.org/2000/svg" xmlns:xlink="http://www.w3.org/1999/xlink" xmlns:sketch="http://www.bohemiancoding.com/sketch/ns">
    <title>Untitled 2</title>
    <description>Created with Sketch (http://www.bohemiancoding.com/sketch)</description>
    <defs></defs>
    <g id="Page-1" stroke="none" stroke-width="1" fill="none" fill-rule="evenodd" sketch:type="MSPage">
        <g id="Logo" sketch:type="MSLayerGroup" transform="translate(1.000000, 0.000000)">
            <path d="M43.44,27.489 C42.889,28.073 42.217,28.532 41.425,28.865 C40.633,29.199 39.745,29.366 38.761,29.366 C37.794,29.366 36.905,29.194 36.096,28.853 C35.287,28.51 34.587,28.033 33.995,27.424 C33.403,26.814 32.944,26.087 32.619,25.243 C32.294,24.399 32.131,23.484 32.131,22.498 C32.131,21.513 32.294,20.598 32.619,19.754 C32.944,18.91 33.403,18.184 33.995,17.573 C34.587,16.964 35.287,16.487 36.096,16.144 C36.905,15.803 37.794,15.631 38.761,15.631 C39.595,15.631 40.399,15.772 41.175,16.057 C41.951,16.34 42.622,16.757 43.189,17.307 L42.789,17.683 C42.305,17.182 41.692,16.807 40.95,16.557 C40.208,16.307 39.478,16.182 38.761,16.182 C37.86,16.182 37.035,16.349 36.284,16.682 C35.534,17.016 34.891,17.466 34.357,18.032 C33.824,18.6 33.411,19.272 33.119,20.047 C32.827,20.822 32.681,21.644 32.681,22.511 C32.681,23.378 32.827,24.199 33.119,24.976 C33.411,25.751 33.82,26.426 34.345,27.002 C34.871,27.577 35.508,28.031 36.259,28.365 C37.01,28.699 37.843,28.865 38.761,28.865 C39.628,28.865 40.433,28.707 41.175,28.391 C41.917,28.073 42.547,27.64 43.064,27.089 L43.44,27.489 L43.44,27.489 Z" id="Fill-1" fill="#3A3B39" sketch:type="MSShapeGroup"></path>
            <path d="M43.44,27.489 C42.889,28.073 42.217,28.532 41.425,28.865 C40.633,29.199 39.745,29.366 38.761,29.366 C37.794,29.366 36.905,29.194 36.096,28.853 C35.287,28.51 34.587,28.033 33.995,27.424 C33.403,26.814 32.944,26.087 32.619,25.243 C32.294,24.399 32.131,23.484 32.131,22.498 C32.131,21.513 32.294,20.598 32.619,19.754 C32.944,18.91 33.403,18.184 33.995,17.573 C34.587,16.964 35.287,16.487 36.096,16.144 C36.905,15.803 37.794,15.631 38.761,15.631 C39.595,15.631 40.399,15.772 41.175,16.057 C41.951,16.34 42.622,16.757 43.189,17.307 L42.789,17.683 C42.305,17.182 41.692,16.807 40.95,16.557 C40.208,16.307 39.478,16.182 38.761,16.182 C37.86,16.182 37.035,16.349 36.284,16.682 C35.534,17.016 34.891,17.466 34.357,18.032 C33.824,18.6 33.411,19.272 33.119,20.047 C32.827,20.822 32.681,21.644 32.681,22.511 C32.681,23.378 32.827,24.199 33.119,24.976 C33.411,25.751 33.82,26.426 34.345,27.002 C34.871,27.577 35.508,28.031 36.259,28.365 C37.01,28.699 37.843,28.865 38.761,28.865 C39.628,28.865 40.433,28.707 41.175,28.391 C41.917,28.073 42.547,27.64 43.064,27.089 L43.44,27.489 L43.44,27.489 Z" id="Stroke-2" stroke="#3A3B39" stroke-width="0.5" sketch:type="MSShapeGroup"></path>
            <path d="M59.175,22.486 C59.175,23.486 59.013,24.408 58.688,25.25 C58.362,26.093 57.899,26.818 57.299,27.427 C56.699,28.036 55.985,28.512 55.16,28.853 C54.335,29.194 53.421,29.366 52.42,29.366 C51.436,29.366 50.532,29.194 49.706,28.853 C48.88,28.512 48.171,28.036 47.58,27.427 C46.987,26.818 46.524,26.093 46.191,25.25 C45.857,24.408 45.69,23.486 45.69,22.486 C45.69,21.485 45.857,20.564 46.191,19.722 C46.524,18.879 46.987,18.157 47.58,17.558 C48.171,16.957 48.88,16.49 49.706,16.156 C50.532,15.823 51.436,15.656 52.42,15.656 C53.421,15.656 54.335,15.823 55.16,16.156 C55.985,16.49 56.699,16.957 57.299,17.558 C57.899,18.157 58.362,18.879 58.688,19.722 C59.013,20.564 59.175,21.485 59.175,22.486 L59.175,22.486 Z M58.625,22.486 C58.625,21.619 58.483,20.797 58.2,20.022 C57.916,19.246 57.503,18.575 56.961,18.008 C56.419,17.44 55.764,16.99 54.998,16.656 C54.23,16.323 53.371,16.156 52.42,16.156 C51.47,16.156 50.61,16.323 49.844,16.656 C49.076,16.99 48.426,17.44 47.892,18.008 C47.358,18.575 46.95,19.246 46.666,20.022 C46.382,20.797 46.241,21.619 46.241,22.486 C46.241,23.37 46.382,24.195 46.666,24.963 C46.95,25.73 47.358,26.405 47.892,26.989 C48.426,27.573 49.076,28.031 49.844,28.365 C50.61,28.699 51.47,28.865 52.42,28.865 C53.371,28.865 54.23,28.699 54.998,28.365 C55.764,28.031 56.419,27.573 56.961,26.989 C57.503,26.405 57.916,25.73 58.2,24.963 C58.483,24.195 58.625,23.37 58.625,22.486 L58.625,22.486 Z" id="Fill-3" fill="#3A3B39" sketch:type="MSShapeGroup"></path>
            <path d="M59.175,22.486 C59.175,23.486 59.013,24.408 58.688,25.25 C58.362,26.093 57.899,26.818 57.299,27.427 C56.699,28.036 55.985,28.512 55.16,28.853 C54.335,29.194 53.421,29.366 52.42,29.366 C51.436,29.366 50.532,29.194 49.706,28.853 C48.88,28.512 48.171,28.036 47.58,27.427 C46.987,26.818 46.524,26.093 46.191,25.25 C45.857,24.408 45.69,23.486 45.69,22.486 C45.69,21.485 45.857,20.564 46.191,19.722 C46.524,18.879 46.987,18.157 47.58,17.558 C48.171,16.957 48.88,16.49 49.706,16.156 C50.532,15.823 51.436,15.656 52.42,15.656 C53.421,15.656 54.335,15.823 55.16,16.156 C55.985,16.49 56.699,16.957 57.299,17.558 C57.899,18.157 58.362,18.879 58.688,19.722 C59.013,20.564 59.175,21.485 59.175,22.486 L59.175,22.486 Z M58.625,22.486 C58.625,21.619 58.483,20.797 58.2,20.022 C57.916,19.246 57.503,18.575 56.961,18.008 C56.419,17.44 55.764,16.99 54.998,16.656 C54.23,16.323 53.371,16.156 52.42,16.156 C51.47,16.156 50.61,16.323 49.844,16.656 C49.076,16.99 48.426,17.44 47.892,18.008 C47.358,18.575 46.95,19.246 46.666,20.022 C46.382,20.797 46.241,21.619 46.241,22.486 C46.241,23.37 46.382,24.195 46.666,24.963 C46.95,25.73 47.358,26.405 47.892,26.989 C48.426,27.573 49.076,28.031 49.844,28.365 C50.61,28.699 51.47,28.865 52.42,28.865 C53.371,28.865 54.23,28.699 54.998,28.365 C55.764,28.031 56.419,27.573 56.961,26.989 C57.503,26.405 57.916,25.73 58.2,24.963 C58.483,24.195 58.625,23.37 58.625,22.486 L58.625,22.486 Z" id="Stroke-4" stroke="#3A3B39" stroke-width="0.5" sketch:type="MSShapeGroup"></path>
            <path d="M63.778,16.507 L63.778,22.11 L70.183,22.11 L70.183,22.611 L63.778,22.611 L63.778,29.016 L63.228,29.016 L63.228,16.006 L70.659,16.006 L70.659,16.507 L63.778,16.507 L63.778,16.507 Z" id="Fill-5" fill="#3A3B39" sketch:type="MSShapeGroup"></path>
            <path d="M63.778,16.507 L63.778,22.11 L70.183,22.11 L70.183,22.611 L63.778,22.611 L63.778,29.016 L63.228,29.016 L63.228,16.006 L70.659,16.006 L70.659,16.507 L63.778,16.507 L63.778,16.507 Z" id="Stroke-6" stroke="#3A3B39" stroke-width="0.5" sketch:type="MSShapeGroup"></path>
            <path d="M75.012,16.507 L75.012,22.11 L81.417,22.11 L81.417,22.611 L75.012,22.611 L75.012,29.016 L74.461,29.016 L74.461,16.006 L81.892,16.006 L81.892,16.507 L75.012,16.507 L75.012,16.507 Z" id="Fill-7" fill="#3A3B39" sketch:type="MSShapeGroup"></path>
            <path d="M75.012,16.507 L75.012,22.11 L81.417,22.11 L81.417,22.611 L75.012,22.611 L75.012,29.016 L74.461,29.016 L74.461,16.006 L81.892,16.006 L81.892,16.507 L75.012,16.507 L75.012,16.507 Z" id="Stroke-8" stroke="#3A3B39" stroke-width="0.5" sketch:type="MSShapeGroup"></path>
            <path d="M85.694,29.016 L85.694,16.006 L93.3,16.006 L93.3,16.507 L86.245,16.507 L86.245,22.011 L92.875,22.011 L92.875,22.511 L86.245,22.511 L86.245,28.516 L93.575,28.516 L93.575,29.016 L85.694,29.016 L85.694,29.016 Z" id="Fill-9" fill="#3A3B39" sketch:type="MSShapeGroup"></path>
            <path d="M85.694,29.016 L85.694,16.006 L93.3,16.006 L93.3,16.507 L86.245,16.507 L86.245,22.011 L92.875,22.011 L92.875,22.511 L86.245,22.511 L86.245,28.516 L93.575,28.516 L93.575,29.016 L85.694,29.016 L85.694,29.016 Z" id="Stroke-10" stroke="#3A3B39" stroke-width="0.5" sketch:type="MSShapeGroup"></path>
            <path d="M97.627,29.016 L97.627,16.006 L105.233,16.006 L105.233,16.507 L98.178,16.507 L98.178,22.011 L104.808,22.011 L104.808,22.511 L98.178,22.511 L98.178,28.516 L105.508,28.516 L105.508,29.016 L97.627,29.016 L97.627,29.016 Z" id="Fill-11" fill="#3A3B39" sketch:type="MSShapeGroup"></path>
            <path d="M97.627,29.016 L97.627,16.006 L105.233,16.006 L105.233,16.507 L98.178,16.507 L98.178,22.011 L104.808,22.011 L104.808,22.511 L98.178,22.511 L98.178,28.516 L105.508,28.516 L105.508,29.016 L97.627,29.016 L97.627,29.016 Z" id="Stroke-12" stroke="#3A3B39" stroke-width="0.5" sketch:type="MSShapeGroup"></path>
            <path d="M125.473,29.016 L123.471,26.864 C122.42,28.532 121.044,29.366 119.343,29.366 C118.826,29.366 118.342,29.286 117.892,29.128 C117.442,28.97 117.05,28.736 116.716,28.428 C116.382,28.119 116.12,27.739 115.928,27.289 C115.736,26.839 115.641,26.33 115.641,25.764 C115.641,24.812 115.928,24.024 116.503,23.399 C117.079,22.773 117.817,22.244 118.718,21.81 C118.384,21.443 118.113,21.114 117.905,20.822 C117.696,20.53 117.529,20.255 117.404,19.996 C117.279,19.738 117.191,19.488 117.142,19.246 C117.091,19.005 117.066,18.75 117.066,18.483 C117.066,17.683 117.337,17.011 117.879,16.469 C118.421,15.927 119.118,15.656 119.969,15.656 C120.819,15.656 121.499,15.906 122.007,16.406 C122.516,16.907 122.771,17.507 122.771,18.208 C122.771,19.009 122.508,19.689 121.982,20.247 C121.457,20.806 120.644,21.377 119.543,21.961 L123.371,26.014 L125.373,22.261 L125.973,22.261 L123.746,26.363 L126.198,29.016 L125.473,29.016 L125.473,29.016 Z M119.043,22.16 C118.659,22.345 118.293,22.553 117.942,22.786 C117.592,23.02 117.287,23.282 117.029,23.574 C116.77,23.866 116.566,24.191 116.416,24.55 C116.266,24.909 116.191,25.313 116.191,25.764 C116.191,26.264 116.274,26.706 116.441,27.089 C116.607,27.473 116.837,27.798 117.129,28.065 C117.42,28.332 117.763,28.536 118.155,28.678 C118.546,28.819 118.968,28.891 119.418,28.891 C120.202,28.891 120.898,28.683 121.507,28.265 C122.116,27.849 122.646,27.248 123.096,26.464 L119.043,22.16 L119.043,22.16 Z M122.22,18.283 C122.22,17.633 122.003,17.111 121.57,16.719 C121.136,16.327 120.585,16.131 119.918,16.131 C119.285,16.131 118.743,16.349 118.293,16.781 C117.842,17.216 117.617,17.774 117.617,18.458 C117.617,19.009 117.746,19.522 118.004,19.996 C118.263,20.472 118.668,21.01 119.218,21.61 C120.252,21.094 121.011,20.564 121.495,20.022 C121.978,19.48 122.22,18.9 122.22,18.283 L122.22,18.283 Z" id="Fill-13" fill="#3A3B39" sketch:type="MSShapeGroup"></path>
            <path d="M125.473,29.016 L123.471,26.864 C122.42,28.532 121.044,29.366 119.343,29.366 C118.826,29.366 118.342,29.286 117.892,29.128 C117.442,28.97 117.05,28.736 116.716,28.428 C116.382,28.119 116.12,27.739 115.928,27.289 C115.736,26.839 115.641,26.33 115.641,25.764 C115.641,24.812 115.928,24.024 116.503,23.399 C117.079,22.773 117.817,22.244 118.718,21.81 C118.384,21.443 118.113,21.114 117.905,20.822 C117.696,20.53 117.529,20.255 117.404,19.996 C117.279,19.738 117.191,19.488 117.142,19.246 C117.091,19.005 117.066,18.75 117.066,18.483 C117.066,17.683 117.337,17.011 117.879,16.469 C118.421,15.927 119.118,15.656 119.969,15.656 C120.819,15.656 121.499,15.906 122.007,16.406 C122.516,16.907 122.771,17.507 122.771,18.208 C122.771,19.009 122.508,19.689 121.982,20.247 C121.457,20.806 120.644,21.377 119.543,21.961 L123.371,26.014 L125.373,22.261 L125.973,22.261 L123.746,26.363 L126.198,29.016 L125.473,29.016 L125.473,29.016 Z M119.043,22.16 C118.659,22.345 118.293,22.553 117.942,22.786 C117.592,23.02 117.287,23.282 117.029,23.574 C116.77,23.866 116.566,24.191 116.416,24.55 C116.266,24.909 116.191,25.313 116.191,25.764 C116.191,26.264 116.274,26.706 116.441,27.089 C116.607,27.473 116.837,27.798 117.129,28.065 C117.42,28.332 117.763,28.536 118.155,28.678 C118.546,28.819 118.968,28.891 119.418,28.891 C120.202,28.891 120.898,28.683 121.507,28.265 C122.116,27.849 122.646,27.248 123.096,26.464 L119.043,22.16 L119.043,22.16 Z M122.22,18.283 C122.22,17.633 122.003,17.111 121.57,16.719 C121.136,16.327 120.585,16.131 119.918,16.131 C119.285,16.131 118.743,16.349 118.293,16.781 C117.842,17.216 117.617,17.774 117.617,18.458 C117.617,19.009 117.746,19.522 118.004,19.996 C118.263,20.472 118.668,21.01 119.218,21.61 C120.252,21.094 121.011,20.564 121.495,20.022 C121.978,19.48 122.22,18.9 122.22,18.283 L122.22,18.283 Z" id="Stroke-14" stroke="#3A3B39" stroke-width="0.5" sketch:type="MSShapeGroup"></path>
            <path d="M147.764,22.56 C147.764,23.679 147.576,24.642 147.201,25.45 C146.826,26.26 146.321,26.927 145.687,27.452 C145.054,27.977 144.303,28.369 143.436,28.628 C142.568,28.887 141.651,29.016 140.684,29.016 L136.956,29.016 L136.956,16.006 L140.684,16.006 C141.651,16.006 142.565,16.136 143.424,16.394 C144.282,16.652 145.033,17.049 145.675,17.582 C146.316,18.116 146.826,18.796 147.201,19.621 C147.576,20.447 147.764,21.427 147.764,22.56 L147.764,22.56 Z M137.506,16.507 L137.506,28.516 L140.559,28.516 C141.51,28.516 142.394,28.391 143.211,28.14 C144.027,27.89 144.732,27.519 145.325,27.026 C145.917,26.535 146.38,25.918 146.713,25.176 C147.047,24.434 147.214,23.561 147.214,22.56 C147.214,21.56 147.047,20.681 146.713,19.922 C146.38,19.163 145.917,18.533 145.325,18.032 C144.732,17.532 144.027,17.153 143.211,16.894 C142.394,16.636 141.51,16.507 140.559,16.507 L137.506,16.507 L137.506,16.507 Z" id="Fill-15" fill="#3A3B39" sketch:type="MSShapeGroup"></path>
            <path d="M147.764,22.56 C147.764,23.679 147.576,24.642 147.201,25.45 C146.826,26.26 146.321,26.927 145.687,27.452 C145.054,27.977 144.303,28.369 143.436,28.628 C142.568,28.887 141.651,29.016 140.684,29.016 L136.956,29.016 L136.956,16.006 L140.684,16.006 C141.651,16.006 142.565,16.136 143.424,16.394 C144.282,16.652 145.033,17.049 145.675,17.582 C146.316,18.116 146.826,18.796 147.201,19.621 C147.576,20.447 147.764,21.427 147.764,22.56 L147.764,22.56 Z M137.506,16.507 L137.506,28.516 L140.559,28.516 C141.51,28.516 142.394,28.391 143.211,28.14 C144.027,27.89 144.732,27.519 145.325,27.026 C145.917,26.535 146.38,25.918 146.713,25.176 C147.047,24.434 147.214,23.561 147.214,22.56 C147.214,21.56 147.047,20.681 146.713,19.922 C146.38,19.163 145.917,18.533 145.325,18.032 C144.732,17.532 144.027,17.153 143.211,16.894 C142.394,16.636 141.51,16.507 140.559,16.507 L137.506,16.507 L137.506,16.507 Z" id="Stroke-16" stroke="#3A3B39" stroke-width="0.5" sketch:type="MSShapeGroup"></path>
            <path d="M151.816,29.016 L151.816,16.006 L159.422,16.006 L159.422,16.507 L152.367,16.507 L152.367,22.011 L158.997,22.011 L158.997,22.511 L152.367,22.511 L152.367,28.516 L159.697,28.516 L159.697,29.016 L151.816,29.016 L151.816,29.016 Z" id="Fill-17" fill="#3A3B39" sketch:type="MSShapeGroup"></path>
            <path d="M151.816,29.016 L151.816,16.006 L159.422,16.006 L159.422,16.507 L152.367,16.507 L152.367,22.011 L158.997,22.011 L158.997,22.511 L152.367,22.511 L152.367,28.516 L159.697,28.516 L159.697,29.016 L151.816,29.016 L151.816,29.016 Z" id="Stroke-18" stroke="#3A3B39" stroke-width="0.5" sketch:type="MSShapeGroup"></path>
            <path d="M170.255,25.863 C170.255,26.431 170.147,26.931 169.93,27.364 C169.713,27.798 169.425,28.165 169.066,28.465 C168.708,28.766 168.286,28.99 167.803,29.141 C167.319,29.291 166.818,29.366 166.302,29.366 C165.501,29.366 164.768,29.22 164.101,28.928 C163.433,28.637 162.883,28.231 162.449,27.715 L162.874,27.34 C163.308,27.823 163.821,28.19 164.413,28.44 C165.005,28.69 165.627,28.815 166.277,28.815 C166.728,28.815 167.161,28.753 167.578,28.628 C167.994,28.503 168.357,28.315 168.666,28.065 C168.975,27.815 169.225,27.506 169.417,27.14 C169.608,26.772 169.704,26.348 169.704,25.863 C169.704,25.363 169.608,24.946 169.417,24.612 C169.225,24.279 168.967,23.995 168.642,23.762 C168.316,23.528 167.949,23.333 167.54,23.174 C167.132,23.016 166.719,22.87 166.302,22.736 C165.785,22.569 165.305,22.395 164.863,22.211 C164.421,22.027 164.038,21.798 163.713,21.522 C163.388,21.247 163.133,20.918 162.949,20.534 C162.766,20.151 162.675,19.684 162.675,19.134 C162.675,18.583 162.782,18.091 163,17.657 C163.216,17.224 163.508,16.856 163.875,16.557 C164.242,16.256 164.667,16.027 165.151,15.868 C165.635,15.71 166.144,15.631 166.677,15.631 C167.378,15.631 168.02,15.765 168.603,16.031 C169.188,16.298 169.663,16.665 170.029,17.132 L169.604,17.507 C169.271,17.073 168.85,16.744 168.341,16.519 C167.832,16.294 167.27,16.182 166.652,16.182 C166.219,16.182 165.797,16.244 165.389,16.369 C164.979,16.494 164.617,16.682 164.301,16.932 C163.983,17.182 163.725,17.491 163.525,17.857 C163.325,18.225 163.225,18.649 163.225,19.134 C163.225,19.617 163.316,20.025 163.5,20.359 C163.684,20.693 163.921,20.977 164.213,21.21 C164.505,21.443 164.839,21.64 165.214,21.798 C165.589,21.957 165.968,22.094 166.352,22.211 C166.902,22.395 167.415,22.582 167.891,22.773 C168.366,22.966 168.778,23.199 169.129,23.474 C169.479,23.749 169.755,24.079 169.955,24.462 C170.154,24.846 170.255,25.313 170.255,25.863 L170.255,25.863 Z" id="Fill-19" fill="#3A3B39" sketch:type="MSShapeGroup"></path>
            <path d="M170.255,25.863 C170.255,26.431 170.147,26.931 169.93,27.364 C169.713,27.798 169.425,28.165 169.066,28.465 C168.708,28.766 168.286,28.99 167.803,29.141 C167.319,29.291 166.818,29.366 166.302,29.366 C165.501,29.366 164.768,29.22 164.101,28.928 C163.433,28.637 162.883,28.231 162.449,27.715 L162.874,27.34 C163.308,27.823 163.821,28.19 164.413,28.44 C165.005,28.69 165.627,28.815 166.277,28.815 C166.728,28.815 167.161,28.753 167.578,28.628 C167.994,28.503 168.357,28.315 168.666,28.065 C168.975,27.815 169.225,27.506 169.417,27.14 C169.608,26.772 169.704,26.348 169.704,25.863 C169.704,25.363 169.608,24.946 169.417,24.612 C169.225,24.279 168.967,23.995 168.642,23.762 C168.316,23.528 167.949,23.333 167.54,23.174 C167.132,23.016 166.719,22.87 166.302,22.736 C165.785,22.569 165.305,22.395 164.863,22.211 C164.421,22.027 164.038,21.798 163.713,21.522 C163.388,21.247 163.133,20.918 162.949,20.534 C162.766,20.151 162.675,19.684 162.675,19.134 C162.675,18.583 162.782,18.091 163,17.657 C163.216,17.224 163.508,16.856 163.875,16.557 C164.242,16.256 164.667,16.027 165.151,15.868 C165.635,15.71 166.144,15.631 166.677,15.631 C167.378,15.631 168.02,15.765 168.603,16.031 C169.188,16.298 169.663,16.665 170.029,17.132 L169.604,17.507 C169.271,17.073 168.85,16.744 168.341,16.519 C167.832,16.294 167.27,16.182 166.652,16.182 C166.219,16.182 165.797,16.244 165.389,16.369 C164.979,16.494 164.617,16.682 164.301,16.932 C163.983,17.182 163.725,17.491 163.525,17.857 C163.325,18.225 163.225,18.649 163.225,19.134 C163.225,19.617 163.316,20.025 163.5,20.359 C163.684,20.693 163.921,20.977 164.213,21.21 C164.505,21.443 164.839,21.64 165.214,21.798 C165.589,21.957 165.968,22.094 166.352,22.211 C166.902,22.395 167.415,22.582 167.891,22.773 C168.366,22.966 168.778,23.199 169.129,23.474 C169.479,23.749 169.755,24.079 169.955,24.462 C170.154,24.846 170.255,25.313 170.255,25.863 L170.255,25.863 Z" id="Stroke-20" stroke="#3A3B39" stroke-width="0.5" sketch:type="MSShapeGroup"></path>
            <path d="M174.157,16.006 L174.708,16.006 L174.708,29.016 L174.157,29.016 L174.157,16.006 Z" id="Fill-21" fill="#3A3B39" sketch:type="MSShapeGroup"></path>
            <path d="M174.157,16.006 L174.708,16.006 L174.708,29.016 L174.157,29.016 L174.157,16.006 Z" id="Stroke-22" stroke="#3A3B39" stroke-width="0.5" sketch:type="MSShapeGroup"></path>
            <path d="M188.255,29.016 C187.463,29.249 186.566,29.366 185.565,29.366 C184.548,29.366 183.623,29.19 182.789,28.84 C181.955,28.488 181.237,28.004 180.638,27.386 C180.037,26.768 179.574,26.036 179.249,25.193 C178.924,24.35 178.761,23.442 178.761,22.474 C178.761,21.504 178.928,20.603 179.261,19.767 C179.595,18.931 180.058,18.204 180.649,17.586 C181.241,16.968 181.951,16.487 182.776,16.144 C183.602,15.803 184.515,15.631 185.516,15.631 C186.416,15.631 187.242,15.772 187.992,16.057 C188.743,16.34 189.385,16.724 189.919,17.207 L189.519,17.607 C189.035,17.124 188.426,16.766 187.692,16.531 C186.958,16.298 186.225,16.182 185.491,16.182 C184.557,16.182 183.71,16.349 182.951,16.682 C182.192,17.016 181.542,17.466 181,18.032 C180.458,18.6 180.041,19.268 179.749,20.034 C179.457,20.802 179.311,21.619 179.311,22.486 C179.311,23.353 179.453,24.171 179.736,24.938 C180.02,25.705 180.433,26.381 180.975,26.964 C181.517,27.548 182.176,28.011 182.951,28.352 C183.727,28.694 184.606,28.865 185.591,28.865 C186.441,28.865 187.204,28.774 187.88,28.59 C188.556,28.407 189.16,28.174 189.693,27.89 L189.693,23.036 L186.392,23.036 L186.392,22.536 L190.244,22.536 L190.244,28.215 C189.71,28.516 189.047,28.782 188.255,29.016 L188.255,29.016 Z" id="Fill-23" fill="#3A3B39" sketch:type="MSShapeGroup"></path>
            <path d="M188.255,29.016 C187.463,29.249 186.566,29.366 185.565,29.366 C184.548,29.366 183.623,29.19 182.789,28.84 C181.955,28.488 181.237,28.004 180.638,27.386 C180.037,26.768 179.574,26.036 179.249,25.193 C178.924,24.35 178.761,23.442 178.761,22.474 C178.761,21.504 178.928,20.603 179.261,19.767 C179.595,18.931 180.058,18.204 180.649,17.586 C181.241,16.968 181.951,16.487 182.776,16.144 C183.602,15.803 184.515,15.631 185.516,15.631 C186.416,15.631 187.242,15.772 187.992,16.057 C188.743,16.34 189.385,16.724 189.919,17.207 L189.519,17.607 C189.035,17.124 188.426,16.766 187.692,16.531 C186.958,16.298 186.225,16.182 185.491,16.182 C184.557,16.182 183.71,16.349 182.951,16.682 C182.192,17.016 181.542,17.466 181,18.032 C180.458,18.6 180.041,19.268 179.749,20.034 C179.457,20.802 179.311,21.619 179.311,22.486 C179.311,23.353 179.453,24.171 179.736,24.938 C180.02,25.705 180.433,26.381 180.975,26.964 C181.517,27.548 182.176,28.011 182.951,28.352 C183.727,28.694 184.606,28.865 185.591,28.865 C186.441,28.865 187.204,28.774 187.88,28.59 C188.556,28.407 189.16,28.174 189.693,27.89 L189.693,23.036 L186.392,23.036 L186.392,22.536 L190.244,22.536 L190.244,28.215 C189.71,28.516 189.047,28.782 188.255,29.016 L188.255,29.016 Z" id="Stroke-24" stroke="#3A3B39" stroke-width="0.5" sketch:type="MSShapeGroup"></path>
            <path d="M204.505,29.016 L195.698,16.757 L195.648,16.757 L195.648,29.016 L195.098,29.016 L195.098,16.006 L195.849,16.006 L204.654,28.265 L204.705,28.265 L204.705,16.006 L205.255,16.006 L205.255,29.016 L204.505,29.016 L204.505,29.016 Z" id="Fill-25" fill="#3A3B39" sketch:type="MSShapeGroup"></path>
            <path d="M204.505,29.016 L195.698,16.757 L195.648,16.757 L195.648,29.016 L195.098,29.016 L195.098,16.006 L195.849,16.006 L204.654,28.265 L204.705,28.265 L204.705,16.006 L205.255,16.006 L205.255,29.016 L204.505,29.016 L204.505,29.016 Z" id="Stroke-26" stroke="#3A3B39" stroke-width="0.5" sketch:type="MSShapeGroup"></path>
            <path d="M12.503,15.455 C10.855,15.455 9.165,15.121 7.576,14.807 C7.117,14.716 6.67,14.628 6.237,14.55 C3.481,14.058 0.514,14.696 -0.37,14.914 C0.958,27.916 5.089,30.055 5.089,30.055 L11.35,30.055 C13.341,28.348 14.628,25.102 15.459,21.99 C16.159,19.375 16.534,16.636 16.737,14.386 C15.43,15.183 13.985,15.455 12.503,15.455" id="Fill-27" fill="#3EB5A4" sketch:type="MSShapeGroup"></path>
            <path d="M6.784,9.343 C6.49,9.343 6.247,9.111 6.235,8.815 C6.134,6.253 6.729,5.669 7.878,4.778 C8.145,4.571 8.447,4.336 8.774,4.032 C10.107,2.792 9.804,1.032 9.791,0.957 C9.737,0.66 9.933,0.373 10.231,0.317 C10.53,0.262 10.815,0.457 10.872,0.754 C10.891,0.852 11.309,3.176 9.523,4.837 C9.161,5.175 8.837,5.426 8.552,5.647 C7.632,6.361 7.251,6.656 7.334,8.771 C7.346,9.075 7.11,9.331 6.806,9.342 C6.799,9.343 6.791,9.343 6.784,9.343" id="Fill-28" fill="#3A3B39" sketch:type="MSShapeGroup"></path>
            <path d="M10.615,9.611 C10.32,9.611 10.076,9.377 10.066,9.08 C9.999,7.127 10.427,6.651 11.189,5.978 C11.369,5.818 11.556,5.653 11.765,5.432 C12.594,4.553 12.398,3.243 12.396,3.23 C12.348,2.931 12.552,2.649 12.85,2.6 C13.15,2.551 13.431,2.752 13.481,3.051 C13.494,3.126 13.775,4.904 12.565,6.187 C12.322,6.445 12.107,6.635 11.917,6.802 C11.332,7.319 11.113,7.513 11.165,9.042 C11.176,9.345 10.938,9.6 10.635,9.61 C10.628,9.611 10.622,9.611 10.615,9.611" id="Fill-29" fill="#3A3B39" sketch:type="MSShapeGroup"></path>
            <path d="M22.425,19.553 C22.425,18.04 21.988,17.023 21.127,16.529 C20.459,16.146 19.594,16.114 18.557,16.434 C18.364,16.493 18.184,16.559 18.023,16.625 C18.033,16.526 18.044,16.43 18.054,16.33 C18.296,13.759 18.278,11.93 18.277,11.854 L18.27,11.31 L0.002,11.31 L0.021,11.879 C0.588,28.475 5.774,30.823 5.995,30.915 L6.096,30.958 L12.47,30.958 L12.621,30.835 C14.056,29.675 15.24,27.852 16.155,25.405 C18.358,25.128 22.425,23.567 22.425,19.553 L22.425,19.553 Z M17.173,12.41 C17.165,12.977 17.136,13.954 17.047,15.17 C14.722,16.727 11.76,16.17 8.89,15.628 C8.413,15.537 7.961,15.452 7.51,15.376 C5.131,14.976 2.669,15.317 1.344,15.575 C1.257,14.587 1.189,13.534 1.142,12.41 L17.173,12.41 L17.173,12.41 Z M12.076,29.858 L6.344,29.858 C5.789,29.519 2.566,27.118 1.451,16.677 C2.666,16.436 5.069,16.08 7.327,16.461 C7.768,16.535 8.214,16.619 8.686,16.708 C10.163,16.987 11.734,17.284 13.273,17.284 C14.537,17.284 15.779,17.084 16.929,16.51 C16.683,18.983 16.281,21.223 15.73,23.167 C14.847,26.286 13.618,28.536 12.076,29.858 L12.076,29.858 Z M18.728,23.443 C17.918,23.863 17.098,24.093 16.565,24.211 C16.641,23.967 16.716,23.72 16.788,23.466 C17.259,21.805 17.623,19.938 17.879,17.905 C18.386,17.623 19.79,17.031 20.58,17.484 C21.074,17.767 21.325,18.463 21.325,19.553 C21.325,21.241 20.451,22.55 18.728,23.443 L18.728,23.443 Z" id="Fill-30" fill="#3A3B39" sketch:type="MSShapeGroup"></path>
        </g>
    </g>
</svg>