<?xml version="1.0" encoding="utf-8"?>
<!-- Generator: Adobe Illustrator 16.2.1, SVG Export Plug-In . SVG Version: 6.00 Build 0)  -->
<!DOCTYPE svg PUBLIC "-//W3C//DTD SVG 1.1//EN" "http://www.w3.org/Graphics/SVG/1.1/DTD/svg11.dtd">
<svg version="1.1" id="Layer_1" xmlns:sketch="http://www.bohemiancoding.com/sketch/ns"
	 xmlns="http://www.w3.org/2000/svg" xmlns:xlink="http://www.w3.org/1999/xlink" x="0px" y="0px" width="416px" height="205px"
	 viewBox="0 0 416 205" enable-background="new 0 0 416 205" xml:space="preserve">
<title>Untitled 3</title>
<description>Created with Sketch (http://www.bohemiancoding.com/sketch)</description>
<g id="Page-1" sketch:type="MSPage">
	<g id="Logo" transform="translate(160.000000, 0.000000)" sketch:type="MSLayerGroup">
		<path id="Fill-2" sketch:type="MSShapeGroup" fill="#F7F7F7" d="M30.5,40c-1.312,0-2.399-1.029-2.452-2.339
			C27.6,26.323,30.254,23.735,35.383,19.79c1.194-0.916,2.545-1.956,4.003-3.301C45.335,11,43.986,3.205,43.926,2.876
			c-0.243-1.319,0.635-2.589,1.964-2.834c1.335-0.247,2.609,0.616,2.861,1.933c0.084,0.435,1.951,10.726-6.021,18.078
			c-1.621,1.495-3.063,2.606-4.337,3.584c-4.108,3.161-5.81,4.47-5.439,13.832c0.054,1.345-1.001,2.477-2.357,2.53
			C30.567,40,30.534,40,30.5,40"/>
		<path id="Fill-3" sketch:type="MSShapeGroup" fill="#F7F7F7" d="M47.411,41c-1.278,0-2.336-1.033-2.381-2.346
			c-0.292-8.625,1.563-10.728,4.868-13.703c0.782-0.704,1.593-1.432,2.499-2.41c3.596-3.884,2.744-9.669,2.737-9.727
			c-0.207-1.321,0.675-2.569,1.971-2.783c1.299-0.217,2.518,0.672,2.734,1.99c0.054,0.332,1.274,8.187-3.974,13.854
			c-1.054,1.137-1.986,1.976-2.81,2.717c-2.538,2.283-3.487,3.138-3.26,9.894c0.045,1.341-0.984,2.466-2.301,2.511
			C47.466,41,47.439,41,47.411,41"/>
		<path id="Fill-4" sketch:type="MSShapeGroup" fill="#F7F7F7" d="M99,85.499c0-6.699-1.928-11.203-5.732-13.389
			c-2.949-1.695-6.766-1.839-11.344-0.424c-0.852,0.265-1.646,0.559-2.359,0.848c0.043-0.436,0.094-0.865,0.135-1.304
			c1.068-11.386,0.989-19.484,0.984-19.823L80.656,49H0l0.086,2.518c2.505,73.487,25.4,83.889,26.373,84.295L26.908,136h28.141
			l0.666-0.543c6.335-5.138,11.562-13.21,15.603-24.044C81.044,110.188,99,103.271,99,85.499L99,85.499z M76,54
			c-0.039,2.553-0.166,6.951-0.562,12.422c-10.293,7.013-23.411,4.501-36.122,2.062c-2.116-0.407-4.115-0.79-6.113-1.132
			c-10.537-1.804-21.439-0.267-27.309,0.894C5.511,63.801,5.207,59.061,5,54H76L76,54z M52.681,131H27.498
			C25.061,129.5,10.9,118.879,6,72.694c5.338-1.067,15.896-2.638,25.818-0.955c1.935,0.327,3.895,0.7,5.969,1.093
			c6.491,1.235,13.391,2.548,20.15,2.548c5.551,0,11.008-0.887,16.062-3.426c-1.083,10.938-2.85,20.848-5.268,29.448
			C64.854,115.203,59.455,125.152,52.681,131L52.681,131z M82.543,103.547C78.971,105.436,75.355,106.47,73,107
			c0.338-1.096,0.668-2.206,0.986-3.35c2.074-7.472,3.682-15.869,4.81-25.01c2.237-1.269,8.433-3.936,11.917-1.898
			C92.895,78.016,94,81.148,94,86.049C94,93.642,90.145,99.531,82.543,103.547L82.543,103.547z"/>
	</g>
	<text transform="matrix(1 0 0 1 -2 204)" fill="#F7F7F7" font-family="'AvenirNext-Regular'" font-size="48">COFFEE &amp; DESIGN</text>
</g>
</svg>
