<?xml version="1.0" encoding="utf-8"?>
<!-- Generator: Adobe Illustrator 16.2.1, SVG Export Plug-In . SVG Version: 6.00 Build 0)  -->
<!DOCTYPE svg PUBLIC "-//W3C//DTD SVG 1.1//EN" "http://www.w3.org/Graphics/SVG/1.1/DTD/svg11.dtd">
<svg version="1.1" id="Layer_1" xmlns="http://www.w3.org/2000/svg" xmlns:xlink="http://www.w3.org/1999/xlink" x="0px" y="0px"
	 width="100px" height="100px" viewBox="0 0 100 100" enable-background="new 0 0 100 100" xml:space="preserve">
<g>
	<path fill="#2E4599" d="M45.895,41.553l-6-12C39.725,29.213,39.379,29,39,29s-0.725,0.213-0.895,0.553l-6,12
		c-0.004,0.009-0.002,0.019-0.007,0.028C32.039,41.709,32,41.849,32,42v33c0,0.907,0.286,1.754,0.735,2.48
		c0.678,1.094,1.707,1.95,2.855,2.557c1.151,0.604,2.428,0.96,3.67,0.963c1.658-0.005,3.287-0.641,4.553-1.687
		C45.071,78.272,45.997,76.76,46,75V42c0-0.151-0.039-0.291-0.099-0.419C45.897,41.572,45.899,41.562,45.895,41.553z M38,43v24h-4
		V43H38z M44,43v24h-4V43H44z M34,69h10v2H34V69z M39,32.236L43.382,41h-8.764L39,32.236z M42.536,77.775
		c-0.907,0.758-2.148,1.229-3.275,1.225c-1.129,0.007-2.537-0.479-3.58-1.259c-0.523-0.388-0.955-0.841-1.243-1.31
		C34.148,75.96,34,75.485,34,75v-2h10v2C44.003,76.025,43.451,77.013,42.536,77.775z"/>
	<path fill="#2E4599" d="M67.707,21.293C67.521,21.106,67.264,21,67,21H51c-0.264,0-0.521,0.106-0.707,0.293
		C50.106,21.479,50,21.737,50,22v58c0,0.264,0.106,0.521,0.293,0.707C50.479,80.894,50.736,81,51,81h16
		c0.264,0,0.521-0.106,0.707-0.293S68,80.264,68,80V22C68,21.737,67.894,21.479,67.707,21.293z M52,71h5c0.553,0,1-0.447,1-1
		s-0.447-1-1-1h-5v-8h5c0.553,0,1-0.447,1-1s-0.447-1-1-1h-5v-8h5c0.553,0,1-0.447,1-1c0-0.552-0.447-1-1-1h-5v-8h5
		c0.553,0,1-0.448,1-1s-0.447-1-1-1h-5v-8h5c0.553,0,1-0.448,1-1s-0.447-1-1-1h-5v-6h14v56H52V71z"/>
</g>
</svg>
