<?xml version="1.0" encoding="utf-8"?>
<!-- Generator: Adobe Illustrator 16.2.1, SVG Export Plug-In . SVG Version: 6.00 Build 0)  -->
<!DOCTYPE svg PUBLIC "-//W3C//DTD SVG 1.1//EN" "http://www.w3.org/Graphics/SVG/1.1/DTD/svg11.dtd">
<svg version="1.1" id="Layer_1" xmlns="http://www.w3.org/2000/svg" xmlns:xlink="http://www.w3.org/1999/xlink" x="0px" y="0px"
	 width="100px" height="100px" viewBox="0 0 100 100" enable-background="new 0 0 100 100" xml:space="preserve">
<g>
	<path fill="#2E4599" d="M45,75h-1c0.003,1.025-0.549,2.013-1.464,2.775c-0.907,0.758-2.148,1.229-3.275,1.225
		c-1.129,0.007-2.537-0.479-3.58-1.259c-0.523-0.388-0.955-0.841-1.243-1.31C34.148,75.96,34,75.485,34,75V42.236l5-10l5,10V75H45h1
		V42c0-0.158-0.035-0.306-0.105-0.447l-6-12C39.725,29.213,39.379,29,39,29s-0.725,0.213-0.895,0.553l-6,12
		C32.035,41.694,32,41.842,32,42v33c0,0.907,0.286,1.754,0.735,2.48c0.678,1.094,1.707,1.95,2.855,2.557
		c1.151,0.604,2.428,0.96,3.67,0.963c1.658-0.005,3.287-0.641,4.553-1.687C45.071,78.272,45.997,76.76,46,75H45z"/>
	<path fill="#2E4599" d="M33,73h12c0.552,0,1-0.447,1-1s-0.448-1-1-1H33c-0.552,0-1,0.447-1,1S32.448,73,33,73"/>
	<path fill="#2E4599" d="M33,69h12c0.552,0,1-0.447,1-1s-0.448-1-1-1H33c-0.552,0-1,0.447-1,1S32.448,69,33,69"/>
	<path fill="#2E4599" d="M67,80v-1H52V23h14v57H67v-1V80h1V22c0-0.263-0.106-0.521-0.293-0.707C67.521,21.106,67.264,21,67,21H51
		c-0.264,0-0.521,0.106-0.707,0.293C50.106,21.479,50,21.737,50,22v58c0,0.264,0.106,0.521,0.293,0.707
		C50.479,80.894,50.736,81,51,81h16c0.264,0,0.521-0.106,0.707-0.293S68,80.264,68,80H67z"/>
	<path fill="#2E4599" d="M51,31h6c0.553,0,1-0.448,1-1s-0.447-1-1-1h-6c-0.552,0-1,0.448-1,1S50.448,31,51,31"/>
	<path fill="#2E4599" d="M51,41h6c0.553,0,1-0.448,1-1s-0.447-1-1-1h-6c-0.552,0-1,0.448-1,1S50.448,41,51,41"/>
	<path fill="#2E4599" d="M51,51h6c0.553,0,1-0.447,1-1c0-0.552-0.447-1-1-1h-6c-0.552,0-1,0.448-1,1C50,50.553,50.448,51,51,51"/>
	<path fill="#2E4599" d="M51,61h6c0.553,0,1-0.447,1-1s-0.447-1-1-1h-6c-0.552,0-1,0.447-1,1S50.448,61,51,61"/>
	<path fill="#2E4599" d="M51,71h6c0.553,0,1-0.447,1-1s-0.447-1-1-1h-6c-0.552,0-1,0.447-1,1S50.448,71,51,71"/>
	<path fill="#2E4599" d="M33,43h12c0.552,0,1-0.448,1-1s-0.448-1-1-1H33c-0.552,0-1,0.448-1,1S32.448,43,33,43"/>
	<path fill="#2E4599" d="M38,42v26c0,0.553,0.448,1,1,1s1-0.447,1-1V42c0-0.552-0.448-1-1-1S38,41.448,38,42"/>
</g>
</svg>
