<?xml version="1.0" encoding="utf-8"?>
<!-- Generator: Adobe Illustrator 16.2.1, SVG Export Plug-In . SVG Version: 6.00 Build 0)  -->
<!DOCTYPE svg PUBLIC "-//W3C//DTD SVG 1.1//EN" "http://www.w3.org/Graphics/SVG/1.1/DTD/svg11.dtd">
<svg version="1.1" id="Layer_1" xmlns="http://www.w3.org/2000/svg" xmlns:xlink="http://www.w3.org/1999/xlink" x="0px" y="0px"
	 width="100px" height="100px" viewBox="0 0 100 100" enable-background="new 0 0 100 100" xml:space="preserve">
<g>
	<g>
		<path fill="#2E4599" d="M43,46c-0.229,0-0.457-0.079-0.641-0.232l-6-5C36.132,40.578,36,40.297,36,40V27
			c0-0.388,0.225-0.741,0.576-0.906c0.35-0.164,0.767-0.111,1.064,0.138l6,5C43.868,31.422,44,31.703,44,32v13
			c0,0.389-0.225,0.741-0.576,0.906C43.289,45.969,43.144,46,43,46z M38,39.531l4,3.334V32.468l-4-3.333V39.531z"/>
	</g>
	<g>
		<path fill="#2E4599" d="M57,46c-0.145,0-0.289-0.031-0.424-0.094C56.225,45.741,56,45.389,56,45V32
			c0-0.297,0.132-0.578,0.359-0.768l6-5c0.299-0.249,0.716-0.3,1.064-0.138C63.775,26.259,64,26.612,64,27v13
			c0,0.297-0.132,0.578-0.359,0.768l-6,5C57.457,45.921,57.229,46,57,46z M58,32.468v10.397l4-3.334V29.135L58,32.468z"/>
	</g>
	<g>
		<path fill="#2E4599" d="M50,47c-0.553,0-1-0.447-1-1V27c0-0.552,0.447-1,1-1s1,0.448,1,1v19C51,46.553,50.553,47,50,47z"/>
	</g>
	<g>
		<path fill="#2E4599" d="M50,74c-0.208,0-0.415-0.064-0.592-0.193C48.65,73.25,42,68.252,42,64.001V39c0-2.804,3.514-5,8-5
			s8,2.196,8,5v25.001c0,4.251-6.65,9.249-7.408,9.806C50.415,73.936,50.208,74,50,74z M50,36c-3.536,0-6,1.581-6,3v25.001
			c0,2.472,3.967,6.126,6.001,7.74C52.1,70.084,56,66.491,56,64.001V39C56,37.581,53.536,36,50,36z"/>
	</g>
	<g>
		<path fill="#2E4599" d="M45.694,70.1c-0.335,0-0.661-0.168-0.851-0.473c-0.291-0.469-0.146-1.086,0.322-1.377
			c1.513-0.938,3.229-1.455,4.835-1.455s3.321,0.517,4.833,1.454c0.469,0.291,0.613,0.907,0.322,1.377
			c-0.291,0.469-0.907,0.614-1.377,0.322c-1.199-0.743-2.541-1.153-3.778-1.153c-1.238,0-2.58,0.41-3.78,1.154
			C46.057,70.051,45.874,70.1,45.694,70.1z"/>
	</g>
</g>
</svg>
